<?xml version="1.0" encoding="utf-8"?>
<!-- Generator: Adobe Illustrator 16.0.0, SVG Export Plug-In . SVG Version: 6.00 Build 0)  -->
<!DOCTYPE svg PUBLIC "-//W3C//DTD SVG 1.1//EN" "http://www.w3.org/Graphics/SVG/1.1/DTD/svg11.dtd">
<svg version="1.1" id="Layer_1" xmlns="http://www.w3.org/2000/svg" xmlns:xlink="http://www.w3.org/1999/xlink" x="0px" y="0px"
	 width="396.27px" height="396.27px" viewBox="2.053 -0.2 396.27 396.27" enable-background="new 2.053 -0.2 396.27 396.27"
	 xml:space="preserve">
<g>
	<path fill="#231F20" d="M7.435,82.728c-1.038,0.342-2.005,0.818-2.838,1.47c-2.376,1.862-1.899,5.719-2.091,8.433
		c-1.021,14.139,0,157.294,0,189.761c0,9.32-1.018,25.402,1.409,28.217c2.374,2.753,14.184,2.118,22.574,2.118
		c52.336,0,96.15,0,148.141,0c8.59,0,18.124,0.904,19.754-4.938c1.224-4.401-1.613-8.195-4.339-11.33
		c-2.665-3.065-47.201-60.733-49.283-63.446c-3.54-4.638-6.464-8.451-5.643-11.29c0.92-3.17,4.989-4.004,7.412-5.706
		c13.391-9.429,20.577-16.083,25.184-28.019c1.348-3.49,2.438-7.09,3.388-10.713c2.735-10.478,4.084-23.289,2.366-34.027
		c-1.396-8.699-4.189-18.229-8.94-25.765c-4.079-6.47-8.375-13.434-14.753-17.898c-9.007-6.303-20.283-12.128-31.204-14.284
		c-6.157-1.215-12.456-2.782-18.72-3.257c-10.607-0.803-21.342-0.432-31.972-0.458c-14.06-0.033-28.137,0.505-42.196,0.296
		c-3.077-0.043-6.163,0.362-9.23,0.152C13.717,81.855,10.297,81.786,7.435,82.728z"/>
	<path fill="#231F20" d="M224.715,82.756c-7.486,1.94-5.648,16.515-5.648,23.986c0,34.629,0,51.634,0,88.883
		c0,32.691,0,56.42,0,88.175c0,9.228-1.377,23.145,2.823,26.81c3.66,3.188,18.519,3.117,28.343,3.117
		c35.554,0,71.413,3.94,105.692-8.159c9.259-3.277,18.191-8.512,25.007-15.71c18.97-20.021,22.788-53.623,9.638-77.675
		c-5.598-10.236-14.281-16.71-23.364-23.609c-4.523-3.432-0.319-6.541,2.119-10.584c1.865-3.091,3.521-6.507,4.233-8.461
		c7.866-21.595,5.108-54.309-12.977-70.333c-5.414-4.795-12.174-7.965-18.769-10.789c-4.741-2.031-9.644-2.996-15.521-4.235
		c-15.602-3.282-35.324-2.117-55.029-2.117c-7.05,0-14.55,0-21.862,0c-6.868,0-18.674-0.65-23.279,0.707
		C225.693,82.886,225.153,82.642,224.715,82.756z"/>
</g>
</svg>
