<?xml version="1.0" encoding="utf-8"?>
<!-- Generator: Adobe Illustrator 16.0.0, SVG Export Plug-In . SVG Version: 6.00 Build 0)  -->
<!DOCTYPE svg PUBLIC "-//W3C//DTD SVG 1.1//EN" "http://www.w3.org/Graphics/SVG/1.1/DTD/svg11.dtd">
<svg version="1.1" id="Layer_1" xmlns="http://www.w3.org/2000/svg" xmlns:xlink="http://www.w3.org/1999/xlink" x="0px" y="0px"
	 width="1525.68px" height="1525.68px" viewBox="0 0 1525.68 1525.68" enable-background="new 0 0 1525.68 1525.68"
	 xml:space="preserve">
<title>Asset 1</title>
<g id="Layer_2">
	<g id="Layer_1-2">
		<path fill="#231F20" d="M52.244,966.5c45.544,19.803,110.891,1.98,144.554,13.861c-59.406,43.564-85.148,132.674-39.604,174.258
			c77.228,69.309,194.06,13.861,261.387-13.861c-19.803,53.467-93.07,178.219-43.564,211.883
			c23.762,15.84,69.307-9.902,100.99-33.664c65.346-47.525,112.871-136.635,156.436-205.941
			c-5.94,53.467-3.961,104.951,7.92,158.416c9.901,47.525,45.545,140.596,110.893,146.535
			c138.613,11.881,122.771-223.762,87.129-291.09c3.96,1.98,1.979,3.961,3.96,5.941c25.742,61.387,174.258,219.803,245.545,170.297
			c51.484-35.645-3.961-136.635-23.763-170.297c-33.663-59.406-69.307-102.971-99.01-154.455
			c116.832,55.443,263.365,81.188,320.791-27.725c47.525-89.107-73.268-190.098-184.157-213.859
			c37.624-21.783,73.268-47.525,104.95-75.248c55.445-9.9,110.892-23.764,164.355-39.604
			c57.426-19.803,223.763-95.051,122.771-168.316c-65.347-47.525-142.573-5.939-198.02-11.883
			c0-39.604-17.822-77.227-49.505-102.969c-79.208-59.406-194.06-9.902-265.347,33.662
			C885.905,431.847,816.6,542.738,763.134,641.75c31.684-146.535,77.228-374.258-19.803-491.09
			c-61.386-73.268-138.612-43.564-180.197,13.861c-89.108,122.771-33.663,265.346-9.9,358.416
			c-120.792-45.545-263.367-112.871-368.317-97.029c-23.762,1.979-45.544,13.861-59.406,33.662
			c-45.544,83.168,138.614,160.396,200,178.219c-77.228,0-114.851,102.971-53.465,152.477
			c-47.524,13.861-87.129,29.701-142.574,49.504C79.967,857.589-82.409,909.074,52.244,966.5z M321.551,1160.56
			c-45.544,9.898-140.594,15.84-160.396-41.584c-15.841-43.564,29.703-120.793,77.228-146.535c19.802-9.9,55.445-9.9,87.128-17.822
			c87.129-21.781,172.277-51.484,255.446-87.129c-51.485,65.348-77.229,164.357-136.634,233.664
			C420.561,1128.876,357.194,1152.638,321.551,1160.56z M644.323,736.798c15.842,7.92,31.684,19.801,45.545,31.682
			c-19.803,13.863-37.625,31.686-53.467,49.506c-97.029,29.703-198.02,39.605-314.852-11.881c-9.9-7.922,19.802-13.861,29.703-9.9
			C444.323,758.58,545.313,752.638,644.323,736.798z M596.798,693.232c21.783,0,51.486-11.881,63.367,13.861
			C646.304,726.896,618.581,699.173,596.798,693.232z M681.946,711.054c-5.939-5.941-3.961-11.883-13.861-15.842
			c17.822-7.922,41.585,1.98,59.406-5.939C733.433,707.093,693.827,701.154,681.946,711.054z M715.61,750.658
			c-13.86-5.939-7.921-15.842-19.802-19.801c7.921-1.98,15.841,0,23.763-5.941C727.491,730.857,719.571,740.757,715.61,750.658
			L715.61,750.658z M664.125,857.589c3.96,1.98,5.94,3.961,3.96,5.939c-45.544,81.189-104.95,154.457-178.217,213.861
			c37.623-77.229,83.168-150.494,136.633-217.82C640.362,859.57,652.243,859.57,664.125,857.589z M307.689,936.798
			c61.386-39.605,150.495-59.406,227.724-79.209C472.046,895.214,382.937,911.054,307.689,936.798z M390.858,1334.816
			c-5.94-51.484,19.803-154.455,73.268-217.82c23.763-29.703,71.287-51.484,106.931-85.148
			c37.624-35.645,69.308-75.248,95.05-120.791C654.224,1057.589,533.433,1299.173,390.858,1334.816z M1032.442,1113.035
			c23.762,39.604,83.168,128.713,43.564,166.336c-23.764,21.783-75.248-1.979-114.852-31.682
			c-124.754-91.09-178.22-265.348-188.119-396.041c1.979-3.959,3.961,0,3.961,1.98c39.604,37.623,99.01,55.445,152.475,102.971
			C967.096,990.263,1000.759,1063.529,1032.442,1113.035z M909.67,920.955c-47.524-21.781-91.089-53.465-124.753-95.049
			C846.304,790.261,868.085,885.312,909.67,920.955z M812.64,742.738c67.327-27.723,144.555-3.961,219.803-3.961
			c5.94,1.98,3.961,5.941,1.979,9.9c-61.386,19.803-122.772,41.584-188.118,45.545C824.521,780.361,828.481,758.58,812.64,742.738
			L812.64,742.738z M1200.759,1000.164c-45.545,15.842-186.139,0-247.523-49.506c-43.564-33.662-53.467-93.068-97.03-132.672
			c73.268-19.803,150.495-31.684,219.803-67.328C1220.561,748.677,1369.075,938.777,1200.759,1000.164L1200.759,1000.164z
			 M800.759,713.035c110.891-15.842,253.465-21.781,360.396-49.506c-17.822,31.686-61.388,49.506-91.09,67.328
			C980.957,709.074,891.848,705.113,800.759,713.035 M1297.788,465.509c23.763-17.822,227.723-37.623,205.941,45.545
			c-11.882,47.523-95.051,75.248-132.675,87.129c-53.465,17.82-95.049,23.762-142.573,37.623
			C1260.165,586.302,1299.769,515.015,1297.788,465.509L1297.788,465.509z M1194.819,639.767
			c-13.861,9.9-65.348,15.842-91.09,17.822c-87.129,11.881-198.02,13.859-275.248,17.82
			c134.654-97.029,285.148-168.316,443.564-209.9C1260.165,524.916,1244.323,602.144,1194.819,639.767z M1131.452,332.837
			c73.268-13.861,142.574,31.684,144.555,108.91c-128.713,37.623-251.484,91.09-366.337,158.416
			c-37.624,21.781-77.228,49.504-120.792,53.467C852.243,493.232,1004.72,354.619,1131.452,332.837z M786.897,744.718
			c13.861,15.842,15.842,35.643,29.703,49.504c-15.842,9.9-35.644,3.961-49.505,9.9c-7.921-13.861-1.979-29.703-5.94-43.562
			C769.075,748.677,778.977,750.658,786.897,744.718z M737.393,871.451c15.843,61.387,43.564,140.594,69.308,221.781
			c23.763,71.287,55.445,158.416,33.662,223.764c-33.662,97.029-120.791,99.01-160.396,17.82
			c-29.703-57.426-45.545-200-25.743-269.307C674.026,1000.164,735.412,932.837,737.393,871.451z M705.709,905.113
			c-11.881,17.822-11.881,33.664-23.763,51.486c0-29.703,19.803-81.189,27.724-110.893
			C723.53,835.806,701.749,895.214,705.709,905.113z M656.204,667.49c-23.762-31.684-41.584-67.326-61.387-100.99
			c53.467,21.783,102.971,49.506,146.534,87.129C719.571,681.351,683.927,663.529,656.204,667.49L656.204,667.49z M571.056,190.261
			c29.703-49.504,91.09-99.01,146.535-43.562c102.97,106.932,53.465,336.633,27.723,479.207
			c-49.505-35.643-102.971-67.326-160.396-89.107C545.313,441.748,499.769,311.054,571.056,190.261z M137.393,475.412
			c41.584-43.564,120.792-25.742,194.061-7.922c75.247,21.783,150.495,45.545,223.762,75.248
			c41.584,15.842,47.524,102.971,79.208,122.771c-53.465,9.9-120.792-5.939-188.118-21.781
			C359.175,625.906,157.195,582.341,137.393,475.412z M378.977,653.63c21.782,3.959,47.524,17.82,75.247,23.762
			c41.585,9.9,97.03,13.861,146.535,37.623c-95.05,21.783-211.881,35.645-310.891,69.307
			C216.601,715.015,297.789,641.748,378.977,653.63L378.977,653.63z M297.789,806.103c13.86,5.939,27.722,11.883,39.604,19.803
			c37.624,15.842,79.208,23.762,120.792,27.725c-65.347,25.74-154.456,45.543-221.782,99.01
			c-67.327-3.961-156.436,23.762-213.861-31.686c55.445-49.504,130.693-69.307,203.96-93.068
			C244.323,821.945,283.927,804.125,297.789,806.103z"/>
	</g>
</g>
</svg>
